<?xml version="1.0" encoding="utf-8"?>
<!-- Generator: Adobe Illustrator 27.9.0, SVG Export Plug-In . SVG Version: 6.00 Build 0)  -->
<svg version="1.1" id="레이어_1" xmlns="http://www.w3.org/2000/svg" xmlns:xlink="http://www.w3.org/1999/xlink" x="0px"
	 y="0px" viewBox="0 0 112 65.5" style="enable-background:new 0 0 112 65.5;" xml:space="preserve">
<style type="text/css">
	.st0{fill:#292929;}
	.st1{fill:#75E1C2;}
</style>
<path class="st0" d="M50.4,16c-1.4-3.2-3.2-6-5.6-8.3s-5.2-4.3-8.3-5.6C33.2,0.7,29.8,0,26.2,0c-3.6,0-7,0.7-10.2,2.1
	c-3.2,1.4-6,3.2-8.3,5.6c-2.4,2.4-4.2,5.2-5.6,8.3C0.7,19.2,0,22.6,0,26.2v39.3h13.1V26.2c0-1.8,0.3-3.5,1-5.1s1.6-3,2.8-4.2
	c1.2-1.2,2.6-2.1,4.2-2.8s3.3-1,5.1-1c1.8,0,3.5,0.3,5.1,1s3,1.6,4.2,2.8c1.2,1.2,2.1,2.6,2.8,4.2s1,3.3,1,5.1v39.3h13.1V26.2
	C52.4,22.6,51.7,19.2,50.4,16z"/>
<path class="st0" d="M92.4,65.5H79.3V45c-2.9-0.7-5.6-1.9-8-3.5c-2.4-1.6-4.5-3.5-6.2-5.8c-1.7-2.2-3.1-4.7-4-7.4
	c-1-2.7-1.4-5.6-1.4-8.6V0h13.1v19.7c0,1.8,0.3,3.5,1,5.1s1.6,3,2.8,4.2c1.2,1.2,2.6,2.1,4.2,2.8s3.3,1,5.1,1c1.8,0,3.5-0.3,5.1-1
	s3-1.6,4.2-2.8c1.2-1.2,2.1-2.6,2.8-4.2s1-3.3,1-5.1V0H112v19.7c0,3-0.5,5.9-1.4,8.6c-1,2.7-2.3,5.2-4,7.4c-1.7,2.2-3.8,4.2-6.2,5.8
	c-2.4,1.6-5.1,2.8-8,3.5V65.5z"/>
<rect x="21.2" y="39.7" transform="matrix(0.7071 0.7071 -0.7071 0.7071 39.299 -5.4355)" class="st1" width="10" height="10"/>
</svg>
