<?xml version="1.0" standalone="no"?>
<!DOCTYPE svg PUBLIC "-//W3C//DTD SVG 20010904//EN"
 "http://www.w3.org/TR/2001/REC-SVG-20010904/DTD/svg10.dtd">
<svg version="1.0" xmlns="http://www.w3.org/2000/svg"
 width="700.000000pt" height="700.000000pt" viewBox="0 0 700.000000 700.000000"
 preserveAspectRatio="xMidYMid meet">
<metadata>
Created by potrace 1.14, written by Peter Selinger 2001-2017
</metadata>
<g transform="translate(0.000000,700.000000) scale(0.100000,-0.100000)"
fill="#000000" stroke="none">
<path d="M3299 6996 c-2 -2 -42 -7 -89 -11 -46 -3 -87 -8 -90 -10 -3 -1 -29
-6 -59 -9 -149 -18 -421 -94 -596 -166 -174 -73 -499 -244 -569 -301 -6 -5
-56 -43 -111 -86 -108 -83 -284 -257 -399 -393 -39 -47 -74 -86 -78 -88 -5 -2
-8 -10 -8 -17 0 -7 -3 -15 -8 -17 -10 -4 -96 -125 -148 -208 -239 -379 -356
-686 -415 -1090 -6 -41 -14 -88 -17 -105 -3 -16 -7 -1035 -9 -2263 l-4 -2232
701 0 700 0 1 2153 c1 1183 3 2171 4 2194 12 147 53 288 135 457 133 275 314
474 545 600 17 9 37 20 45 26 76 46 258 111 397 142 177 38 450 32 628 -13
113 -29 318 -124 445 -207 104 -68 276 -239 344 -341 55 -83 129 -220 152
-284 62 -170 84 -264 100 -417 1 -14 2 -989 3 -2167 l1 -2143 700 0 701 0 -4
2233 c-1 1227 -6 2250 -10 2272 -4 22 -12 76 -18 120 -6 44 -17 112 -25 150
-9 39 -17 79 -19 89 -41 195 -124 419 -227 616 -189 362 -345 558 -633 801
-399 335 -713 508 -1130 623 -101 28 -270 61 -360 71 -33 4 -69 9 -80 12 -23
5 -491 13 -496 9z"/>
<path d="M3017 2712 l-488 -488 485 -484 c266 -266 488 -486 493 -487 4 -2
227 216 495 484 l487 488 -487 488 c-269 268 -490 487 -493 487 -2 0 -224
-220 -492 -488z"/>
</g>
</svg>
